<?xml version="1.0" encoding="utf-8"?>
<!-- Generator: Adobe Illustrator 25.2.1, SVG Export Plug-In . SVG Version: 6.00 Build 0)  -->
<svg version="1.1" id="Layer_1" xmlns="http://www.w3.org/2000/svg" xmlns:xlink="http://www.w3.org/1999/xlink" x="0px" y="0px"
	 viewBox="0 0 612 343.5" style="enable-background:new 0 0 612 343.5;" xml:space="preserve">
<style type="text/css">
	.st0{fill:url(#SVGID_1_);}
	.st1{fill:#FFFFFF;}
	.st2{fill:url(#SVGID_2_);}
	.st3{fill:url(#SVGID_3_);}
</style>
<g>
	<path d="M405.7,217.4h-6v0.9c0,0,0.1,0,0.1,0C401.6,218.3,403.9,217.9,405.7,217.4z"/>
	<path d="M411,224.8v-6.7c-0.4,0.5-1,1-1.7,1.2c-0.9,0.3-5.8,1.8-9.4,1.8c0,0-0.1,0-0.1,0v46.8h11.8v-24.5c0-5,1.3-8.9,3.9-11.6
		c2.6-2.7,6.2-4,10.8-4c0.8,0,1.7,0.1,2.7,0.3v-11.3C420.4,216.9,414.4,219.5,411,224.8z"/>
</g>
<g>
	<path d="M520.4,112.3c-0.6-0.3-1.2-1-1.9-1.8c-1.1-1.2-2.6-2.7-4.7-4l-1.7-1c-2.5-1.5-4.3-2.6-5-3.7c-0.5-0.7-1.3-2.7-1.9-4.3
		c-0.7-1.8-1.2-3-1.6-3.5c-0.4-0.6-2.2-2.2-5.1-4.7c-1.4-1.3-2.8-2.4-3.3-3c-0.1-0.1-0.3-0.3-0.3-0.2l-0.1,0.1l-3.4-3.3
		c-0.1-0.1-0.2-0.1-0.3-0.1l-0.4,0.7l0,0.1l-0.1,0c-0.2-0.1-0.9-0.5-1.1-0.7c0,0,0,0,0,0c-0.5-0.4-1-1-1.4-1.5
		c-0.6-0.9-0.8-2.1-1-3.1c-0.4-2.2-0.6-4.4-0.7-6.5c-0.1-1.1-0.1-2.2-0.1-3.3c-0.2-1-0.6-1.9-1-2.8c-1.3-1.9-3.1-3.5-4.4-3.5
		c-2.4,0-2.9,1.2-4.8,5.4c-2.1,4.5-3.7,11.4-3.9,13.3c-0.1,1.6-2.3,5.5-2.9,5.8c-1.2,0-7.5,0.9-8.3,1c-0.3,0.1-0.6,0.3-0.7,0.6
		c-0.1,0.3,0,0.7,0.2,0.9l0.7,0.7l-0.2,0c-0.4,0-0.7,0.3-0.8,0.7c-0.1,0.4,0.1,0.8,0.4,1l0.5,0.3c-0.3,0.1-0.6,0.3-0.7,0.6
		c1.9,2.4,3.3,5.1,4.5,7.8c0.7,1.6,1.2,3.2,1.7,4.9c0.5,1.7,0.8,3.3,1.2,5c0.6,3.4,0.9,6.8,0.8,10.3c-0.1,3-0.4,6.1-1.4,9
		c0.3,0.2,0.8,0.2,1.2,0.1c-0.3,0.6-0.6,1.3-0.2,1.8c0.5,0.8,1.4,0.5,2.7,0c0.1,0,0.1-0.1,0.2-0.1c-0.1,0.3-0.3,0.6-0.6,1.1
		c-0.2,0.4-0.6,1-0.1,1.5c0.3,0.3,0.8,0.3,1.2,0.1c1.4-0.9,1.9-1.8,2.3-2.6c0.1-0.2,0.2-0.5,0.4-0.7c0.1,0.2,0.3,0.4,0.6,0.5
		c0.3,0.1,0.7,0,1-0.2c0.4-0.3,0.8-0.8,1.2-1.3c0.1-0.2,0.3-0.4,0.5-0.6c0.2,0.4,0.4,0.8,0.8,0.9c0.2,0.1,0.7,0,0.9-0.1
		c0.8-0.4,0.8-1.5,0.8-2.7c0-0.1,0-0.2,0-0.4c0.1,0.1,0.2,0.1,0.3,0.2c0.3,0.2,0.6,0.3,1,0.1c0.3-0.1,0.5-0.5,0.5-0.8
		c0-0.5,0.2-2,1-2.7c0.3-0.3,0.4-0.4,1.6,0.2c0.5,0.2,1.1,0.5,1.8,0.7c1.3,0.4,2.6,1.6,3.7,3.5c0,0.1,0.1,0.3,0.1,0.4
		c0.1,0.4,0.1,0.8,0.4,1.1c0.2,0.3,0.6,0.6,0.9,0.8c0.1,0.1,0.4,0.2,0.4,0.3c0.1,0.1,0.2,0.5,0.2,0.7c0.1,0.3,0.2,0.5,0.3,0.7
		c0.4,0.6,1.1,0.5,1.5,0.4c0.1,0,0.3,0,0.3-0.1c0.1,0.1,0.1,0.2,0.1,0.5c0,0.4,0.1,1,0.8,1.3c0.8,0.4,1.5-0.1,2-0.4
		c0,0,0.1,0,0.1-0.1c0,0.1,0,0.2,0,0.3c0.1,0.5,0.2,1.6,1.3,1.7c0,0,0.1,0,0.1,0c0.7,0,1.3-0.4,1.9-1c0-0.1,0-0.2,0-0.3
		c0-0.4,0.1-0.7-0.2-1l0-0.1c1,0.4,0.4,1.7,1,2c0.8,0,1.4-0.7,1.8-1.3c0.3-0.7,0.3-1.6,0.1-2.3c-0.2-0.8-0.5-1.5-1-2.2
		c-1-1.2-2.2-2.4-3.4-3.5c-1.2-1-2.4-2-3.7-2.9v0c0,0,0,0-0.1,0c0,0-0.1-0.1-0.1-0.1l0,0c-0.7-0.6-1.5-1.1-2.3-1.7
		c-2.7-1.9-3.2-5.1-2.9-6.2c0.2,0,0.4,0,0.5,0.1c0.1,0.1,0.3,0.8,0.3,0.8l1.6-0.4v1.6h1l-1,1.5l1.5,0.4v2.1l1.5,0.6v1.1
		c1.6,0.5,3.1,1.3,4.4,2.3c1.4,1,2.6,2,3.8,3.5c0.6,0.9,1,1.8,1.1,2.7c0.1,1,0.2,2-0.4,3.1c-0.4,0.6-0.6,0.8-1.1,1.1
		c-0.5,0.3-1,0.6-1.8,0.4c-0.1,0-0.1-0.1-0.1-0.1c0,0.1,0,0.2,0,0.4c0.3,3.2,0.8,7.1,4,7.5c0.1,0,0.2,0,0.4,0c1.9,0,3.4-1.8,4.4-5
		c0.7-2.4,1-8.8-2.5-12.1c-1-0.9-2.2-1.6-3.7-2.4c-1.3-0.7-3-1.6-4.9-2.9c-3.6-2.5-4.4-4.3-4.4-4.4c0-0.1,0-0.1-0.1-0.2l-0.7-1.2
		c1.5,0.5,5,2.4,6,3.1c0.2,0.1,0.4,0.3,0.7,0.5c1.2,1,3.6,2.9,7,3.5c4.2,0.7,8.9,0.7,11.2,0c2.4-0.7,5.7-4.3,6-5.7
		C524.4,116.3,524.6,114.9,520.4,112.3z"/>
	<linearGradient id="SVGID_1_" gradientUnits="userSpaceOnUse" x1="490.2303" y1="82.0008" x2="490.2154" y2="82.0157">
		<stop  offset="2.108918e-02" style="stop-color:#ED2585"/>
		<stop  offset="0.2091" style="stop-color:#CA2A88"/>
		<stop  offset="0.5975" style="stop-color:#8A328E"/>
		<stop  offset="0.8699" style="stop-color:#603592"/>
		<stop  offset="1" style="stop-color:#4E3594"/>
	</linearGradient>
	<path class="st0" d="M490.5,82.3L490.5,82.3c-0.2-0.2-0.4-0.3-0.5-0.5C490.1,81.9,490.3,82.1,490.5,82.3z"/>
	<path class="st1" d="M502.8,96c-1.4,1.4-2.9,1.2-4.3,1.8c-1.4,0.7-2.9,1.1-2.9,1.1s1.1-0.3,3.1,1.1c2.2,1.5,3,0.9,3.8,1.7
		c-0.3-0.6-0.8-1.2-1.6-1.6c0,0,0.2-0.2,0.1-1.1c-0.1-1-0.4-0.9-0.4-0.9C501.4,98.2,503.3,96.6,502.8,96z"/>
	<g>
		<path d="M487.3,68.2c0,0.2,0.1,0.4,0.1,0.5l0,0.4c0,0.3,0,0.5,0.1,0.8l0.1,1.6c0.2,2.2,0.5,4.3,0.8,6.4c0.1,0.5,0.2,1,0.3,1.5
			c0.1,0.5,0.3,0.8,0.5,1.3c0.2,0.4,0.5,0.8,0.8,1.1c0.1,0.2,0.3,0.4,0.5,0.5l0,0c0.6-1.9,0.9-5.3,0.7-7.8c0-0.7-0.1-1.5-0.1-2.4
			c-0.1-4.4-0.3-6.8-1.9-6.8c-1-0.1-2.2,0.4-2.8,0.8C486.8,66.7,487.1,67.4,487.3,68.2z"/>
	</g>
	<path d="M460.6,130.8c2.1-0.5,3.6-0.9,5.5-1.7c0.9-6.5,0.9-13.1-0.2-19.1c-1.1-6.2-3.1-11.7-6.6-17.2c-1.8,0.1-3-0.1-4.7,0.5
		c1.3,2.3,2.4,4.8,3.3,7.3c0.7,1.7,1.1,3.6,1.6,5.4c0.4,1.8,0.8,3.6,1.1,5.5c0.6,3.7,0.9,7.4,0.9,11.1c0,1.9-0.1,3.7-0.4,5.6
		C461,129.1,460.8,129.9,460.6,130.8z"/>
	<path d="M336.3,159.8c-2.2-4.4-2.3-8.8-2.1-10.4c0.3-0.8,3.8-3.1,4.6-3.2c0.5,0,1.8-0.3,3-0.5c-0.3-0.3-0.5-0.6-0.8-1
		c-1.8-2.1-4-4.1-6.2-6.3c-0.8-0.8-1.5-1.6-2.1-2.5c-1.9,0.4-3.7,0.7-5.2,0.9c-1.1,0.2-2.1,0.3-2.6,0.4c-2.3,0.5-4.2,2.3-4.6,4.2
		c-0.2,1.3,0.3,2.3,1,3.5c0.3,0.5,0.7,1.1,1,1.9c0.8,1.6,0.9,2.3,1.2,3.5c0.1,0.6,0.2,1.3,0.5,2.2c0.6,2.7,1.3,3.7,2.1,4.8l0.4,0.6
		c0.9,1.4,2.1,5.4,2.2,6.8c0.1,1.1,0,3,0,4.3c0,0.5,0,1,0,1.4c0,1,0.8,2.1,1.6,3.2c0.4,0.5,0.7,1,0.9,1.4c0.8,1.6,2.9,2.6,5.9,2.8
		c0.2,0,0.4,0,0.5,0c1.1,0,2-0.3,2.6-0.8c0.7-0.6,0.7-1.4,0.7-1.6c0-0.1,0-0.5-1.6-6C339.5,169.3,338.9,165,336.3,159.8z"/>
	<linearGradient id="SVGID_2_" gradientUnits="userSpaceOnUse" x1="414.9744" y1="159.7333" x2="414.9735" y2="159.7386">
		<stop  offset="0" style="stop-color:#AD3092"/>
		<stop  offset="0.2134" style="stop-color:#863A96"/>
		<stop  offset="0.3621" style="stop-color:#6C3D98"/>
		<stop  offset="0.6684" style="stop-color:#5C3995"/>
		<stop  offset="0.973" style="stop-color:#4E3594"/>
	</linearGradient>
	<polygon class="st2" points="415,159.7 415,159.7 415,159.7 	"/>
	<path d="M417.7,168.3c0-1.8-0.3-6.1-0.4-8.9c0,0,0,0,0,0c-0.6,0-1.2,0.1-1.7,0.2c-0.1,0-0.1,0-0.1,0c-0.6,1.1-1.1,2-1.6,2.9
		l-3.8,6.7c-1.2,2.2-2.6,4.5-3.4,6.5l-1.1,3.7c-0.4,1.2-0.8,2.5-1.2,3.7l-0.7,2.1l0.9-0.3c0.8-0.3,2-0.4,3.3-0.5
		c0.6,0,1.2-0.1,1.8-0.2c2.3-0.2,3.9-0.6,5.8-2.2c2-1.6,2.6-3.2,2.9-4.9c0.3-1.1,0-3.1-0.3-5.1C417.9,170.7,417.7,169.4,417.7,168.3
		z"/>
	<path d="M459.7,121.1c0-3.6-0.4-5.5-1-9.1c-0.6-3.6-1.2-6-2.1-9.6c-0.7-2.7-2.2-6.7-3.1-9.4c-0.7-0.7-1.8-1.6-3.8-2.4
		c-2.4-0.9-5-0.6-7.9-0.3c-1.7,0.2-3.7,0.4-5.8,0.4c-2.9,0-5-1.2-7.3-2.4c-2-1.1-4.1-2.3-6.9-2.7c-3.6-0.5-7.2-1.5-11.5-2.7
		c-2.5-0.7-5.1-1.4-8-2.1c-2.9-0.7-6.4-1.7-10.2-2.7c-6.3-1.8-12.9-3.6-16.5-4.1c-12.4-1.8-30.3-1.1-40.1,6.4
		c-2.7,2.1-4.2,3.6-5.3,4.6c-1,1-1.6,1.5-2.4,1.9c-0.7,0.3-3.2,0.9-5.5,1.5c-2.2,0.5-4.4,1.1-5.9,1.6c-2.2,0.7-4,1.4-5.7,2
		c-3.8,1.4-6.7,2.5-10.8,2.4c-16.1-0.1-24.1-7.1-30.4-12.8c-3.1-2.7-5.7-5.1-8.8-6.3c-9.7-3.9-15.2,0-15.5,0.2
		c-0.2,0.1-0.3,0.3-0.3,0.5c-0.1,0.2-1.3,4.6,1.9,9.1c1.6,2.2,3.8,3.4,5.8,4.5c0.8,0.4,1.5,0.8,2.1,1.2c-2.7-0.5-3.9-0.7-4.5,0.1
		c-0.1,0.1-0.4,0.7,0,1.3c0.5,0.7,2,1.4,6.6,3.3c0.3,0.1,0.6,0.2,0.9,0.4c-0.2,0-0.5-0.1-0.7-0.1c-2.5-0.5-2.9-0.6-3.3,0.1
		c-0.2,0.3-0.1,0.8,0.1,1.1c0.3,0.4,1.1,0.7,3.7,1.6c-0.4,0.1-0.6,0.2-0.8,0.6c-0.2,0.3-0.1,0.9,0.2,1.1c0.4,0.4,1.5,0.8,4,1.7
		c-0.3,0.1-0.5,0.3-0.6,0.6c-0.1,0.4,0,0.9,0.3,1.1c0.6,0.5,1.7,0.7,4.3,1.1c0,0,0.1,0,0.1,0c-0.6,0.2-0.8,0.4-0.9,0.9
		c-0.1,0.4,0.1,0.8,0.4,1c0.6,0.4,1.7,0.4,3.5,0.3c0.2,0,0.5,0,0.8,0c-0.4,0.3-0.7,0.7-0.7,1.2c0,0.4,0.3,0.7,0.7,0.9
		c0.3,0.2,0.7,0.1,2.2-0.1c-0.1,0.2-0.1,0.4-0.1,0.6c0.1,0.3,0.3,0.6,0.6,0.7c0.5,0.2,1,0,1.7-0.3c0,0.2,0,0.4,0.1,0.6
		c0.1,0.2,0.4,0.5,0.6,0.6c0.5,0.2,1.1,0,2.1-0.5c0,0.3,0,0.5,0.1,0.8c0.1,0.2,0.4,0.5,0.7,0.6c0.5,0.1,1-0.1,2-0.5
		c0.1,0,0.2-0.1,0.3-0.1c0,0.3,0,0.5,0.2,0.8c0.2,0.3,0.5,0.5,0.8,0.5c0.5,0.1,1-0.1,1.9-0.4c0.2-0.1,0.5-0.2,0.7-0.2
		c0.2,0.7,0.6,1.1,1.2,1.2c0.6,0.1,1.4-0.1,2.2-0.3c0.6-0.1,1.3-0.3,1.6-0.3c0.1,0,0.1,0,0.3,0.2c0.3,0.3,0.7,0.8,1.6,0.9
		c0.8,0,1.7-0.2,2.7-0.4c0.8-0.2,1.6-0.4,2.1-0.4c0,0,0,0,0,0c0.4,0,0.7,0.1,1.1,0.3c0.6,0.2,1.3,0.5,2.4,0.3
		c0.9-0.2,1.9-0.8,2.9-1.4c0.7-0.4,1.4-0.9,2-1.1c0.2-0.1,0.4,0,0.7,0c0.4,0.1,1,0.2,1.8-0.1c0.6-0.2,1.1-0.7,1.7-1.2
		c0.4-0.3,0.9-0.7,1.1-0.9c0.4-0.2,0.8-0.2,1.2-0.2c0.5,0,1.2,0,1.9-0.4c0.7-0.4,1.4-0.9,2.1-1.5c0.5-0.4,1-0.8,1.4-1
		c2.4-1.3,4.4-2.5,6-3.5c-0.2,0.7-0.4,1.5-0.4,2.3c0,0.8,0.5,1.1,1,1.2c-0.1,0.1-0.2,0.2-0.3,0.3c-1,1-1.4,1.4-1.5,2
		c0,0.3,0.2,0.6,0.4,0.8c0.3,0.2,0.6,0.2,1.1,0.1c-0.6,1-0.8,1.5-0.8,2c0,0.3,0.2,0.6,0.4,0.8c0.1,0.1,0.3,0.1,0.4,0.2
		c-0.1,0.3-0.2,0.6-0.2,0.8c0,0.3,0.2,0.6,0.4,0.8c0.3,0.2,0.6,0.2,0.9,0.1c-0.2,0.4-0.3,0.8-0.2,1.2c0.2,1,1.2,1.1,1.8,1
		c-0.1,0.1-0.1,0.3-0.2,0.4c-0.5,1-0.9,1.6-0.7,2.3c0.3,0.9,1.3,0.9,2.7,0.8c0.3,0,0.6,0,0.9,0c-0.1,0.3-0.3,0.6-0.4,0.9
		c-0.7,1.4-1.1,2.2-0.8,2.9c0.6,1,1.7,0.4,3.5-0.6c0,0,0.1,0,0.1-0.1c-0.2,0.3-0.3,0.7-0.4,0.9c-1.3,2.8-1.6,3.3-1.2,3.9
		c0.1,0.2,0.4,0.4,0.7,0.4c0.6,0.1,0.9-0.1,3.4-2.1c0,0.1-0.1,0.1-0.1,0.2c-1.7,2.9-1.9,3.3-1.7,3.9c0.1,0.3,0.4,0.5,0.7,0.6
		c0.6,0.2,1.1-0.1,3-1.6c-1.1,1.7-1.8,3-1,3.8c0.3,0.3,0.7,0.4,1.1,0.3c-0.1,0.4-0.1,0.8,0.2,1.2l0.3,0.3c0.1,0.1,0.2,0.2,0.3,0.3
		c0.6,0.6,1.3,1.2,2,1.7c2.4,1.9,4.8,3.9,6.9,6.2c2,2.3,3.8,5.3,3.4,8.5c-0.4,2.2-1.1,4.3-1.9,6.3c-0.1,0.8-0.3,1.6-0.5,2.2
		c-0.7,1.8-1.5,3.2-2.2,4.3c-0.9,1.5-1.6,2.7-1.2,3.9c0.9,2.9,12.7,13.6,16.8,15.4c4,1.7,10.8,8.3,10.8,8.4c0.1,0.1,0.2,0.2,0.3,0.2
		c0.4,0.1,4.1,1.5,5.9,1.3c1.5-0.1,6.1-1.1,7.2-3.6c1-2.3,0.1-4,0.1-4.1c-0.1-0.2-0.3-0.3-0.4-0.4l-3.7-1.6
		c-0.1-0.1-12.8-5.7-15.5-9.2c-2.9-3.7-4-5-3.8-12.4c0.1-5.2,2.3-8.9,4.1-11.9c0.8-1.3,1.5-2.6,2-3.8c0.5-1.4,1.5-3.1,2.5-4.9
		c1.6-2.9,3.3-5.9,3.4-8.1c0.1-2.2,0-3.9-0.1-4.9l2.8-0.4c1.2,2,5.3,9,6.6,10.7c0.8,1,2.1,1.4,3.5,1.8c1.7,0.5,3.7,1.1,5.3,3.1
		c1.9,2.4,3.5,4.1,4.7,5.4c0.7,0.7,1.2,1.3,1.5,1.7c0.8,1,1.5,2.8,1.2,4.3c-0.1,0.6-0.5,2.6-1.1,5.2c-0.2,1.2-0.5,2.6-0.8,4.1
		c-0.2,1.4-0.5,2.9-0.7,4.3c-0.4,2.2-0.7,4.5-1.1,6.7c-0.2,1.1-0.6,2.2-0.7,3.3L391,182c-0.2,1.1-0.3,2.2-0.7,3.4
		c-0.6,1-1.5,1.8-2.2,2.7c-0.3,0.4-0.7,0.9-0.9,1.3c-0.2,0.4-0.1,1,0,1.5c0.2,1.1,0.6,2.1,1,3.2c0.2,0.5,0.5,1,0.7,1.6
		c0.1,0.6,0.2,1.1,0.3,1.7c0.1,1.1,0.2,2.3,0.3,3.4c0.1,1.5,0.2,2.9,0.2,4.4c0.3,2.7,0.6,5.7,0.8,8.6c0,0.3,0.2,0.5,0.4,0.6
		c0.2,0.1,4.4,3.4,7.7,3.8c0.4,0.1,0.7,0.1,1.1,0.1c3.4,0,8.4-1.6,8.6-1.6c0.2-0.1,0.5-0.3,0.6-0.5c0.4-0.9,0.1-2.1-0.8-3.3
		c-1.1-1.5-3.1-2.9-4.8-2.8c-1.1-0.9-2.7-8.1-3-12.2l0,0c-0.1-2.3-0.3-4.7,0.1-7.1c0-0.3,0.1-0.7,0.2-1.1c0.1-0.3,0.2-0.7,0.3-1.1
		c0.5-2,1-4,1.5-6c0.7-2.5,1.3-5,1.9-7.5c0.8-2.5,2.1-4.8,3.3-7.1c1.2-2.3,2.5-4.5,3.7-6.8c0.6-1.1,1.3-2.3,1.8-3.4
		c0.2-0.4,0.6-0.6,0.9-0.7c0.3-0.1,0.7-0.2,1-0.2c0.7-0.1,1.3-0.1,2-0.2c3.1-0.1,6.3-0.2,9.3-0.6c1.6-0.3,3.1-0.7,4.7-1.2
		c7-2.6,18.3-8.4,21.4-11.1c3.6-3.2,5-5.6,5.5-6.8c0.5-1.3,1.8-4.2,1.7-6c0-0.9,0.1-1.8,0.1-2.7
		C459.7,126.4,459.7,122.9,459.7,121.1z"/>
	<linearGradient id="SVGID_3_" gradientUnits="userSpaceOnUse" x1="415.6867" y1="158.9127" x2="415.6557" y2="159.0888">
		<stop  offset="0" style="stop-color:#AD3092"/>
		<stop  offset="0.2134" style="stop-color:#863A96"/>
		<stop  offset="0.3621" style="stop-color:#6C3D98"/>
		<stop  offset="0.6684" style="stop-color:#5C3995"/>
		<stop  offset="0.973" style="stop-color:#4E3594"/>
	</linearGradient>
	<path class="st3" d="M415.7,158.9L415.7,158.9c0,0.1-0.1,0.1-0.1,0.2c0,0,0,0,0,0C415.7,159,415.7,158.9,415.7,158.9z"/>
	<path d="M384.5,186.7c0.1,0.6,0.2,1.1,0.4,1.5c0.4-0.9,0.8-1.3,1.1-1.8l1.1-1.4c0.3-0.4,2-2.1,2.1-2.3c0-0.1,0.2-0.6,0.2-0.9
		l0.3-1.6l0.4-2.4c-2,0.5-3.4,0.9-3.9,1.2C384.2,180.4,384.3,183.8,384.5,186.7z"/>
	<path class="st1" d="M479,87.1l0.3-2.1c0.1-0.5,0.4-0.9,0.8-1c0.2-0.1,0.4-0.1,0.5-0.1V82c0-0.4,0.2-0.9,0.6-1.1
		c0.4-0.2,0.9-0.2,1.2,0l0.1,0.1v-3.3c0-0.5,0.3-0.9,0.7-1.1c0.1,0,0.2-0.1,0.3-0.1c-0.3-3-0.9-7.9-1.5-9.9
		c-0.5-1.6-1.2-2.2-1.5-2.4c-0.3,0.3-5.2,7.2-5.2,13.2c0,4.7,1.2,8.3,1.9,9.9c0.2-0.3,0.5-0.4,0.8-0.5
		C478.4,86.8,478.7,86.9,479,87.1L479,87.1z"/>
</g>
<path d="M149.5,172.1h-34.2l-6.7,15.8H95.5l30.7-68.3h12.5l30.8,68.3h-13.3L149.5,172.1z M145.3,162.1l-12.9-29.9l-12.8,29.9H145.3z
	"/>
<path d="M219.6,138.5c4,2.2,7.1,5.3,9.4,9.4c2.3,4,3.4,8.7,3.4,14c0,5.3-1.1,9.9-3.4,14c-2.3,4.1-5.4,7.2-9.4,9.4
	c-4,2.2-8.5,3.3-13.6,3.3c-3.6,0-6.8-0.6-9.8-1.9c-3-1.2-5.5-3.1-7.5-5.6v6.7h-11.6v-72.4h12.2v26.6c2.1-2.3,4.5-4,7.4-5.2
	c2.8-1.2,5.9-1.8,9.3-1.8C211.1,135.2,215.6,136.3,219.6,138.5z M215.7,173.6c2.9-3,4.3-6.9,4.3-11.8c0-4.9-1.4-8.8-4.3-11.8
	c-2.9-3-6.6-4.5-11.1-4.5c-2.9,0-5.6,0.7-7.9,2c-2.3,1.3-4.2,3.2-5.6,5.7c-1.4,2.5-2,5.3-2,8.6c0,3.3,0.7,6.1,2,8.6
	c1.4,2.5,3.2,4.4,5.6,5.7c2.3,1.3,5,2,7.9,2C209.1,178.1,212.8,176.6,215.7,173.6z"/>
<path d="M244.1,115.5h12.2v72.4h-12.2V115.5z"/>
<path d="M321.1,165.7h-40.9c0.7,3.8,2.6,6.9,5.6,9.1c3,2.2,6.8,3.4,11.3,3.4c5.7,0,10.4-1.9,14.2-5.7l6.5,7.5
	c-2.3,2.8-5.3,4.9-8.9,6.3c-3.6,1.4-7.6,2.1-12.1,2.1c-5.7,0-10.8-1.1-15.1-3.4c-4.4-2.3-7.7-5.4-10.1-9.5
	c-2.4-4.1-3.6-8.7-3.6-13.8c0-5.1,1.2-9.6,3.5-13.7c2.3-4.1,5.5-7.2,9.6-9.5c4.1-2.3,8.7-3.4,13.9-3.4c5.1,0,9.6,1.1,13.6,3.4
	c4,2.2,7.1,5.4,9.4,9.5c2.2,4.1,3.4,8.8,3.4,14.1C321.3,163,321.2,164.2,321.1,165.7z M285,148.4c-2.7,2.3-4.3,5.4-4.9,9.2h29.6
	c-0.5-3.8-2.1-6.8-4.8-9.2c-2.7-2.3-6-3.5-10-3.5C291,144.9,287.7,146.1,285,148.4z"/>
<path d="M118.3,212.1H96.4v-10.4h56.2v10.4h-21.9v55.8h-12.3V212.1z"/>
<path d="M188.7,216.9v11.3c-1-0.2-1.9-0.3-2.7-0.3c-4.6,0-8.2,1.3-10.8,4c-2.6,2.7-3.9,6.5-3.9,11.6v24.5h-11.8v-50.5h11.3v7.4
	C174.1,219.5,180.1,216.9,188.7,216.9z"/>
<path d="M234.8,222.2c3.9,3.6,5.9,8.9,5.9,16.1v29.6h-11.2v-6.1c-1.5,2.2-3.5,3.9-6.2,5.1c-2.7,1.2-5.9,1.8-9.7,1.8
	s-7.1-0.6-9.9-1.9c-2.8-1.3-5-3.1-6.6-5.4c-1.5-2.3-2.3-4.9-2.3-7.8c0-4.5,1.7-8.2,5.1-10.9c3.4-2.7,8.7-4.1,15.9-4.1h13.1v-0.8
	c0-3.5-1.1-6.2-3.2-8.1c-2.1-1.9-5.2-2.8-9.4-2.8c-2.8,0-5.6,0.4-8.4,1.3c-2.7,0.9-5.1,2.1-7,3.7l-4.6-8.6c2.6-2,5.8-3.6,9.6-4.6
	c3.7-1.1,7.7-1.6,11.8-1.6C225.2,216.9,230.9,218.7,234.8,222.2z M224,258c2.3-1.4,3.9-3.3,4.9-5.8v-5.9h-12.2
	c-6.8,0-10.2,2.2-10.2,6.7c0,2.1,0.9,3.8,2.6,5.1c1.7,1.3,4.1,1.9,7.1,1.9C219.1,260,221.7,259.3,224,258z"/>
<path d="M254.5,207.1c-1.5-1.4-2.2-3-2.2-5.1c0-2,0.7-3.7,2.2-5.1c1.5-1.4,3.2-2,5.4-2c2.1,0,3.9,0.6,5.4,1.9
	c1.5,1.3,2.2,2.9,2.2,4.9c0,2.1-0.7,3.8-2.1,5.2s-3.2,2.1-5.4,2.1C257.8,209.1,256,208.4,254.5,207.1z M254,217.4h11.8v50.5H254
	V217.4z"/>
<path d="M323.4,222.5c3.8,3.7,5.8,9.2,5.8,16.6v28.9h-11.8v-27.4c0-4.4-1-7.7-3.1-10c-2.1-2.2-5-3.4-8.9-3.4
	c-4.3,0-7.8,1.3-10.3,3.9c-2.5,2.6-3.8,6.4-3.8,11.3v25.5h-11.8v-50.5h11.3v6.5c2-2.3,4.4-4.1,7.4-5.3c3-1.2,6.3-1.8,10-1.8
	C314.4,216.9,319.5,218.7,323.4,222.5z"/>
<path d="M390.1,246.5h-39.6c0.7,3.7,2.5,6.7,5.4,8.8c2.9,2.2,6.6,3.3,10.9,3.3c5.5,0,10.1-1.8,13.7-5.5l6.3,7.3
	c-2.3,2.7-5.1,4.8-8.6,6.1c-3.5,1.4-7.4,2.1-11.7,2.1c-5.5,0-10.4-1.1-14.7-3.3c-4.2-2.2-7.5-5.3-9.8-9.2c-2.3-3.9-3.5-8.4-3.5-13.4
	c0-4.9,1.1-9.3,3.4-13.3c2.2-3.9,5.3-7,9.3-9.2c4-2.2,8.4-3.3,13.4-3.3c4.9,0,9.3,1.1,13.2,3.3c3.9,2.2,6.9,5.2,9.1,9.2
	c2.2,3.9,3.3,8.5,3.3,13.7C390.2,243.8,390.2,245,390.1,246.5z M355.1,229.7c-2.6,2.2-4.2,5.2-4.8,8.9H379c-0.5-3.7-2-6.6-4.6-8.9
	c-2.6-2.3-5.8-3.4-9.6-3.4C360.9,226.3,357.7,227.5,355.1,229.7z"/>
<path d="M440.8,267c-3.9-1.1-7-2.4-9.4-4.1l4.5-9c2.3,1.5,5,2.7,8.2,3.6c3.2,0.9,6.3,1.4,9.4,1.4c7.1,0,10.6-1.9,10.6-5.6
	c0-1.8-0.9-3-2.7-3.7c-1.8-0.7-4.7-1.4-8.7-2c-4.2-0.6-7.6-1.4-10.2-2.2c-2.6-0.8-4.9-2.3-6.8-4.3c-1.9-2-2.9-4.9-2.9-8.6
	c0-4.8,2-8.6,6-11.5c4-2.9,9.4-4.3,16.2-4.3c3.5,0,6.9,0.4,10.4,1.2c3.5,0.8,6.3,1.8,8.5,3.2l-4.5,9c-4.3-2.5-9.1-3.8-14.5-3.8
	c-3.5,0-6.1,0.5-7.9,1.6c-1.8,1-2.7,2.4-2.7,4.1c0,1.9,1,3.2,2.9,4c1.9,0.8,4.9,1.5,8.9,2.2c4,0.6,7.3,1.4,9.9,2.2
	c2.6,0.8,4.8,2.2,6.7,4.2c1.9,2,2.8,4.7,2.8,8.3c0,4.7-2,8.5-6.1,11.3c-4.1,2.8-9.7,4.3-16.7,4.3C448.8,268.6,444.8,268.1,440.8,267
	z"/>
</svg>
